<?xml version="1.0" encoding="UTF-8" standalone="no"?>
<svg
   xmlns:dc="http://purl.org/dc/elements/1.1/"
   xmlns:cc="http://creativecommons.org/ns#"
   xmlns:rdf="http://www.w3.org/1999/02/22-rdf-syntax-ns#"
   xmlns:svg="http://www.w3.org/2000/svg"
   xmlns="http://www.w3.org/2000/svg"
   viewBox="0 0 576 576"
   height="576"
   width="576"
   xml:space="preserve"
   id="svg2"
   version="1.1"><metadata
     id="metadata8"><rdf:RDF><cc:Work
         rdf:about=""><dc:format>image/svg+xml</dc:format><dc:type
           rdf:resource="http://purl.org/dc/dcmitype/StillImage" /></cc:Work></rdf:RDF></metadata><defs
     id="defs6"><clipPath
       id="clipPath26"
       clipPathUnits="userSpaceOnUse"><path
         id="path24"
         d="M 6.22,0 H 425.77 V 432 H 6.22 Z" /></clipPath><clipPath
       id="clipPath38"
       clipPathUnits="userSpaceOnUse"><path
         id="path36"
         d="M 50.32,37.46 H 420.3 V 426.52 H 50.32 Z" /></clipPath></defs><g
     transform="matrix(1.3333333,0,0,-1.3333333,0,576)"
     id="g10"><g
       id="g12"><path
         id="path14"
         style="fill:#ffffff;fill-opacity:1;fill-rule:nonzero;stroke:none"
         d="M 0,0 H 432 V 432 H 0 Z" /></g><g
       id="g16" /><g
       id="g18" /><g
       id="g20"><g
         clip-path="url(#clipPath26)"
         id="g22"><path
           id="path28"
           style="fill:#ffffff;fill-opacity:1;fill-rule:nonzero;stroke:#ffffff;stroke-width:1.07000005;stroke-linecap:round;stroke-linejoin:round;stroke-miterlimit:10;stroke-dasharray:none;stroke-opacity:1"
           d="M 6.22,0 H 425.77 V 432 H 6.22 Z" /></g></g><g
       id="g30" /><g
       id="g32"><g
         clip-path="url(#clipPath38)"
         id="g34"><path
           id="path40"
           style="fill:#ffffff;fill-opacity:1;fill-rule:nonzero;stroke:none"
           d="M 50.32,37.46 H 420.3 V 426.52 H 50.32 Z" /><path
           id="path42"
           style="fill:none;stroke:#ebebeb;stroke-width:1.07000005;stroke-linecap:butt;stroke-linejoin:round;stroke-miterlimit:10;stroke-dasharray:none;stroke-opacity:1"
           d="M 50.32,50.57 H 420.3" /><path
           id="path44"
           style="fill:none;stroke:#ebebeb;stroke-width:1.07000005;stroke-linecap:butt;stroke-linejoin:round;stroke-miterlimit:10;stroke-dasharray:none;stroke-opacity:1"
           d="M 50.32,149.77 H 420.3" /><path
           id="path46"
           style="fill:none;stroke:#ebebeb;stroke-width:1.07000005;stroke-linecap:butt;stroke-linejoin:round;stroke-miterlimit:10;stroke-dasharray:none;stroke-opacity:1"
           d="M 50.32,207.79 H 420.3" /><path
           id="path48"
           style="fill:none;stroke:#ebebeb;stroke-width:1.07000005;stroke-linecap:butt;stroke-linejoin:round;stroke-miterlimit:10;stroke-dasharray:none;stroke-opacity:1"
           d="M 50.32,248.96 H 420.3" /><path
           id="path50"
           style="fill:none;stroke:#ebebeb;stroke-width:1.07000005;stroke-linecap:butt;stroke-linejoin:round;stroke-miterlimit:10;stroke-dasharray:none;stroke-opacity:1"
           d="M 50.32,280.9 H 420.3" /><path
           id="path52"
           style="fill:none;stroke:#ebebeb;stroke-width:1.07000005;stroke-linecap:butt;stroke-linejoin:round;stroke-miterlimit:10;stroke-dasharray:none;stroke-opacity:1"
           d="M 50.32,306.99 H 420.3" /><path
           id="path54"
           style="fill:none;stroke:#ebebeb;stroke-width:1.07000005;stroke-linecap:butt;stroke-linejoin:round;stroke-miterlimit:10;stroke-dasharray:none;stroke-opacity:1"
           d="M 50.32,329.05 H 420.3" /><path
           id="path56"
           style="fill:none;stroke:#ebebeb;stroke-width:1.07000005;stroke-linecap:butt;stroke-linejoin:round;stroke-miterlimit:10;stroke-dasharray:none;stroke-opacity:1"
           d="M 50.32,348.16 H 420.3" /><path
           id="path58"
           style="fill:none;stroke:#ebebeb;stroke-width:1.07000005;stroke-linecap:butt;stroke-linejoin:round;stroke-miterlimit:10;stroke-dasharray:none;stroke-opacity:1"
           d="M 50.32,365.01 H 420.3" /><path
           id="path60"
           style="fill:none;stroke:#ebebeb;stroke-width:1.07000005;stroke-linecap:butt;stroke-linejoin:round;stroke-miterlimit:10;stroke-dasharray:none;stroke-opacity:1"
           d="M 50.32,380.09 H 420.3" /><path
           id="path62"
           style="fill:none;stroke:#ebebeb;stroke-width:1.07000005;stroke-linecap:butt;stroke-linejoin:round;stroke-miterlimit:10;stroke-dasharray:none;stroke-opacity:1"
           d="M 50.32,393.73 H 420.3" /><path
           id="path64"
           style="fill:none;stroke:#ebebeb;stroke-width:1.07000005;stroke-linecap:butt;stroke-linejoin:round;stroke-miterlimit:10;stroke-dasharray:none;stroke-opacity:1"
           d="M 104.09,37.46 V 426.52" /><path
           id="path66"
           style="fill:none;stroke:#ebebeb;stroke-width:1.07000005;stroke-linecap:butt;stroke-linejoin:round;stroke-miterlimit:10;stroke-dasharray:none;stroke-opacity:1"
           d="M 203.29,37.46 V 426.52" /><path
           id="path68"
           style="fill:none;stroke:#ebebeb;stroke-width:1.07000005;stroke-linecap:butt;stroke-linejoin:round;stroke-miterlimit:10;stroke-dasharray:none;stroke-opacity:1"
           d="M 261.31,37.46 V 426.52" /><path
           id="path70"
           style="fill:none;stroke:#ebebeb;stroke-width:1.07000005;stroke-linecap:butt;stroke-linejoin:round;stroke-miterlimit:10;stroke-dasharray:none;stroke-opacity:1"
           d="M 302.48,37.46 V 426.52" /><path
           id="path72"
           style="fill:none;stroke:#ebebeb;stroke-width:1.07000005;stroke-linecap:butt;stroke-linejoin:round;stroke-miterlimit:10;stroke-dasharray:none;stroke-opacity:1"
           d="M 334.42,37.46 V 426.52" /><path
           id="path74"
           style="fill:none;stroke:#ebebeb;stroke-width:1.07000005;stroke-linecap:butt;stroke-linejoin:round;stroke-miterlimit:10;stroke-dasharray:none;stroke-opacity:1"
           d="M 360.51,37.46 V 426.52" /><path
           id="path76"
           style="fill:none;stroke:#ebebeb;stroke-width:1.07000005;stroke-linecap:butt;stroke-linejoin:round;stroke-miterlimit:10;stroke-dasharray:none;stroke-opacity:1"
           d="M 382.57,37.46 V 426.52" /><path
           id="path78"
           style="fill:none;stroke:#ebebeb;stroke-width:1.07000005;stroke-linecap:butt;stroke-linejoin:round;stroke-miterlimit:10;stroke-dasharray:none;stroke-opacity:1"
           d="M 401.68,37.46 V 426.52" /><path
           id="path80"
           style="fill:#999999;fill-opacity:0.4;fill-rule:nonzero;stroke:none"
           d="m 67.13,74.36 4.26,4.1 4.26,4.1 4.26,4.1 4.25,4.11 4.26,4.1 4.26,4.1 4.26,4.1 4.25,4.11 4.26,4.1 4.26,4.1 4.26,4.11 4.25,4.1 4.26,4.11 4.26,4.11 4.26,4.11 4.25,4.1 4.26,4.11 4.26,4.11 4.26,4.12 4.25,4.11 4.26,4.11 4.26,4.12 4.26,4.12 4.25,4.11 4.26,4.12 4.26,4.13 4.26,4.12 4.25,4.13 4.26,4.13 4.26,4.13 4.26,4.13 4.25,4.14 4.26,4.14 4.26,4.15 4.26,4.15 4.25,4.15 4.26,4.16 4.26,4.17 4.26,4.17 4.26,4.18 4.25,4.18 4.26,4.2 4.26,4.2 4.26,4.21 4.25,4.22 4.26,4.24 4.26,4.24 4.26,4.26 4.25,4.26 4.26,4.28 4.26,4.29 4.26,4.3 4.25,4.31 4.26,4.33 4.26,4.33 4.26,4.34 4.25,4.36 4.26,4.36 4.26,4.37 4.26,4.38 4.25,4.38 4.26,4.39 4.26,4.39 4.26,4.4 4.25,4.41 4.26,4.41 4.26,4.41 4.26,4.42 4.25,4.42 4.26,4.42 4.26,4.42 4.26,4.43 4.25,4.43 4.26,4.43 4.26,4.44 4.26,4.43 4.25,4.44 4.26,4.44 4.26,4.44 v -12.46 l -4.26,-4.12 -4.26,-4.11 -4.25,-4.12 -4.26,-4.11 -4.26,-4.12 -4.26,-4.13 -4.25,-4.12 -4.26,-4.13 -4.26,-4.12 -4.26,-4.13 -4.25,-4.14 -4.26,-4.14 -4.26,-4.14 -4.26,-4.14 -4.25,-4.15 -4.26,-4.15 -4.26,-4.16 -4.26,-4.16 -4.25,-4.17 -4.26,-4.18 -4.26,-4.18 -4.26,-4.2 -4.25,-4.2 -4.26,-4.21 -4.26,-4.22 -4.26,-4.23 -4.25,-4.24 -4.26,-4.25 -4.26,-4.26 -4.26,-4.28 -4.25,-4.28 -4.26,-4.3 -4.26,-4.31 -4.26,-4.32 -4.25,-4.33 -4.26,-4.34 -4.26,-4.35 -4.26,-4.36 -4.25,-4.37 -4.26,-4.38 -4.26,-4.38 -4.26,-4.38 -4.26,-4.4 -4.25,-4.4 -4.26,-4.4 -4.26,-4.41 -4.26,-4.41 -4.25,-4.42 -4.26,-4.41 -4.26,-4.43 -4.26,-4.42 -4.25,-4.43 -4.26,-4.43 -4.26,-4.43 -4.26,-4.43 -4.25,-4.44 -4.26,-4.43 -4.26,-4.44 -4.26,-4.44 -4.25,-4.44 -4.26,-4.44 -4.26,-4.44 -4.26,-4.45 -4.25,-4.44 -4.26,-4.45 -4.26,-4.44 -4.26,-4.45 -4.25,-4.45 -4.26,-4.45 -4.26,-4.45 -4.26,-4.45 L 96.94,86.3 92.68,81.85 88.42,77.4 84.16,72.95 79.91,68.5 75.65,64.05 71.39,59.59 67.13,55.14 Z" /><path
           id="path82"
           style="fill:none;stroke:#333333;stroke-width:0.43000001;stroke-linecap:butt;stroke-linejoin:round;stroke-miterlimit:10;stroke-dasharray:1.71, 1.71;stroke-dashoffset:0;stroke-opacity:1"
           d="m 67.13,64.75 4.26,4.28 4.26,4.28 4.26,4.27 4.25,4.28 4.26,4.28 4.26,4.27 4.26,4.28 4.25,4.28 4.26,4.27 4.26,4.28 4.26,4.28 4.25,4.27 4.26,4.28 4.26,4.27 4.26,4.28 4.25,4.28 4.26,4.27 4.26,4.28 4.26,4.28 4.25,4.27 4.26,4.28 4.26,4.28 4.26,4.27 4.25,4.28 4.26,4.28 4.26,4.27 4.26,4.28 4.25,4.28 4.26,4.27 4.26,4.28 4.26,4.28 4.25,4.27 4.26,4.28 4.26,4.28 4.26,4.27 4.25,4.28 4.26,4.28 4.26,4.27 4.26,4.28 4.26,4.28 4.25,4.27 4.26,4.28 4.26,4.28 4.26,4.27 4.25,4.28 4.26,4.28 4.26,4.27 4.26,4.28 4.25,4.28 4.26,4.27 4.26,4.28 4.26,4.28 4.25,4.27 4.26,4.28 4.26,4.28 4.26,4.27 4.25,4.28 4.26,4.28 4.26,4.27 4.26,4.28 4.25,4.28 4.26,4.27 4.26,4.28 4.26,4.28 4.25,4.27 4.26,4.28 4.26,4.28 4.26,4.27 4.25,4.28 4.26,4.28 4.26,4.27 4.26,4.28 4.25,4.28 4.26,4.27 4.26,4.28 4.26,4.28 4.25,4.27 4.26,4.28 4.26,4.28" /><path
           id="path84"
           style="fill:#000000;fill-opacity:0.69800002;fill-rule:nonzero;stroke:#000000;stroke-width:0.70999998;stroke-linecap:round;stroke-linejoin:round;stroke-miterlimit:10;stroke-dasharray:none;stroke-opacity:0.69800002"
           d="m 312.7,312.57 c 0,1.08 0.88,1.96 1.95,1.96 1.08,0 1.96,-0.88 1.96,-1.96 0,-1.07 -0.88,-1.95 -1.96,-1.95 -1.07,0 -1.95,0.88 -1.95,1.95" /><path
           id="path86"
           style="fill:#000000;fill-opacity:0.69800002;fill-rule:nonzero;stroke:#000000;stroke-width:0.70999998;stroke-linecap:round;stroke-linejoin:round;stroke-miterlimit:10;stroke-dasharray:none;stroke-opacity:0.69800002"
           d="m 321.2,317.74 c 0,1.07 0.88,1.95 1.96,1.95 1.07,0 1.95,-0.88 1.95,-1.95 0,-1.08 -0.88,-1.96 -1.95,-1.96 -1.08,0 -1.96,0.88 -1.96,1.96" /><path
           id="path88"
           style="fill:#000000;fill-opacity:0.69800002;fill-rule:nonzero;stroke:#000000;stroke-width:0.70999998;stroke-linecap:round;stroke-linejoin:round;stroke-miterlimit:10;stroke-dasharray:none;stroke-opacity:0.69800002"
           d="m 292.82,291.22 c 0,1.07 0.87,1.95 1.95,1.95 1.07,0 1.95,-0.88 1.95,-1.95 0,-1.08 -0.88,-1.96 -1.95,-1.96 -1.08,0 -1.95,0.88 -1.95,1.96" /><path
           id="path90"
           style="fill:#000000;fill-opacity:0.69800002;fill-rule:nonzero;stroke:#000000;stroke-width:0.70999998;stroke-linecap:round;stroke-linejoin:round;stroke-miterlimit:10;stroke-dasharray:none;stroke-opacity:0.69800002"
           d="m 330.13,351.99 c 0,1.07 0.88,1.95 1.95,1.95 1.08,0 1.96,-0.88 1.96,-1.95 0,-1.08 -0.88,-1.96 -1.96,-1.96 -1.07,0 -1.95,0.88 -1.95,1.96" /><path
           id="path92"
           style="fill:#000000;fill-opacity:0.69800002;fill-rule:nonzero;stroke:#000000;stroke-width:0.70999998;stroke-linecap:round;stroke-linejoin:round;stroke-miterlimit:10;stroke-dasharray:none;stroke-opacity:0.69800002"
           d="m 306.65,304.78 c 0,1.07 0.88,1.95 1.96,1.95 1.07,0 1.95,-0.88 1.95,-1.95 0,-1.08 -0.88,-1.96 -1.95,-1.96 -1.08,0 -1.96,0.88 -1.96,1.96" /><path
           id="path94"
           style="fill:#000000;fill-opacity:0.69800002;fill-rule:nonzero;stroke:#000000;stroke-width:0.70999998;stroke-linecap:round;stroke-linejoin:round;stroke-miterlimit:10;stroke-dasharray:none;stroke-opacity:0.69800002"
           d="m 294.62,298.58 c 0,1.08 0.88,1.96 1.95,1.96 1.08,0 1.96,-0.88 1.96,-1.96 0,-1.07 -0.88,-1.95 -1.96,-1.95 -1.07,0 -1.95,0.88 -1.95,1.95" /><path
           id="path96"
           style="fill:#000000;fill-opacity:0.69800002;fill-rule:nonzero;stroke:#000000;stroke-width:0.70999998;stroke-linecap:round;stroke-linejoin:round;stroke-miterlimit:10;stroke-dasharray:none;stroke-opacity:0.69800002"
           d="m 313.81,314.91 c 0,1.07 0.88,1.95 1.96,1.95 1.07,0 1.95,-0.88 1.95,-1.95 0,-1.08 -0.88,-1.96 -1.95,-1.96 -1.08,0 -1.96,0.88 -1.96,1.96" /><path
           id="path98"
           style="fill:#000000;fill-opacity:0.69800002;fill-rule:nonzero;stroke:#000000;stroke-width:0.70999998;stroke-linecap:round;stroke-linejoin:round;stroke-miterlimit:10;stroke-dasharray:none;stroke-opacity:0.69800002"
           d="m 322.83,309.7 c 0,1.08 0.88,1.95 1.96,1.95 1.07,0 1.95,-0.87 1.95,-1.95 0,-1.08 -0.88,-1.95 -1.95,-1.95 -1.08,0 -1.96,0.87 -1.96,1.95" /><path
           id="path100"
           style="fill:#000000;fill-opacity:0.69800002;fill-rule:nonzero;stroke:#000000;stroke-width:0.70999998;stroke-linecap:round;stroke-linejoin:round;stroke-miterlimit:10;stroke-dasharray:none;stroke-opacity:0.69800002"
           d="m 288.62,296.14 c 0,1.08 0.88,1.96 1.96,1.96 1.07,0 1.95,-0.88 1.95,-1.96 0,-1.07 -0.88,-1.95 -1.95,-1.95 -1.08,0 -1.96,0.88 -1.96,1.95" /><path
           id="path102"
           style="fill:#000000;fill-opacity:0.69800002;fill-rule:nonzero;stroke:#000000;stroke-width:0.70999998;stroke-linecap:round;stroke-linejoin:round;stroke-miterlimit:10;stroke-dasharray:none;stroke-opacity:0.69800002"
           d="m 310.93,312.15 c 0,1.07 0.88,1.95 1.95,1.95 1.08,0 1.96,-0.88 1.96,-1.95 0,-1.08 -0.88,-1.96 -1.96,-1.96 -1.07,0 -1.95,0.88 -1.95,1.96" /><path
           id="path104"
           style="fill:#000000;fill-opacity:0.69800002;fill-rule:nonzero;stroke:#000000;stroke-width:0.70999998;stroke-linecap:round;stroke-linejoin:round;stroke-miterlimit:10;stroke-dasharray:none;stroke-opacity:0.69800002"
           d="m 299.81,303.83 c 0,1.07 0.88,1.95 1.95,1.95 1.08,0 1.96,-0.88 1.96,-1.95 0,-1.08 -0.88,-1.96 -1.96,-1.96 -1.07,0 -1.95,0.88 -1.95,1.96" /><path
           id="path106"
           style="fill:#000000;fill-opacity:0.69800002;fill-rule:nonzero;stroke:#000000;stroke-width:0.70999998;stroke-linecap:round;stroke-linejoin:round;stroke-miterlimit:10;stroke-dasharray:none;stroke-opacity:0.69800002"
           d="m 311.12,302.54 c 0,1.07 0.88,1.95 1.96,1.95 1.07,0 1.95,-0.88 1.95,-1.95 0,-1.08 -0.88,-1.96 -1.95,-1.96 -1.08,0 -1.96,0.88 -1.96,1.96" /><path
           id="path108"
           style="fill:#000000;fill-opacity:0.69800002;fill-rule:nonzero;stroke:#000000;stroke-width:0.70999998;stroke-linecap:round;stroke-linejoin:round;stroke-miterlimit:10;stroke-dasharray:none;stroke-opacity:0.69800002"
           d="m 213.58,216.11 c 0,1.08 0.88,1.96 1.96,1.96 1.07,0 1.95,-0.88 1.95,-1.96 0,-1.07 -0.88,-1.95 -1.95,-1.95 -1.08,0 -1.96,0.88 -1.96,1.95" /><path
           id="path110"
           style="fill:#000000;fill-opacity:0.69800002;fill-rule:nonzero;stroke:#000000;stroke-width:0.70999998;stroke-linecap:round;stroke-linejoin:round;stroke-miterlimit:10;stroke-dasharray:none;stroke-opacity:0.69800002"
           d="m 322.77,328.2 c 0,1.08 0.88,1.96 1.96,1.96 1.07,0 1.95,-0.88 1.95,-1.96 0,-1.07 -0.88,-1.95 -1.95,-1.95 -1.08,0 -1.96,0.88 -1.96,1.95" /><path
           id="path112"
           style="fill:#000000;fill-opacity:0.69800002;fill-rule:nonzero;stroke:#000000;stroke-width:0.70999998;stroke-linecap:round;stroke-linejoin:round;stroke-miterlimit:10;stroke-dasharray:none;stroke-opacity:0.69800002"
           d="m 196.82,198.95 c 0,1.08 0.88,1.96 1.95,1.96 1.08,0 1.96,-0.88 1.96,-1.96 0,-1.07 -0.88,-1.95 -1.96,-1.95 -1.07,0 -1.95,0.88 -1.95,1.95" /><path
           id="path114"
           style="fill:#000000;fill-opacity:0.69800002;fill-rule:nonzero;stroke:#000000;stroke-width:0.70999998;stroke-linecap:round;stroke-linejoin:round;stroke-miterlimit:10;stroke-dasharray:none;stroke-opacity:0.69800002"
           d="m 139.97,134.38 c 0,1.07 0.88,1.95 1.95,1.95 1.08,0 1.96,-0.88 1.96,-1.95 0,-1.08 -0.88,-1.96 -1.96,-1.96 -1.07,0 -1.95,0.88 -1.95,1.96" /><path
           id="path116"
           style="fill:#000000;fill-opacity:0.69800002;fill-rule:nonzero;stroke:#000000;stroke-width:0.70999998;stroke-linecap:round;stroke-linejoin:round;stroke-miterlimit:10;stroke-dasharray:none;stroke-opacity:0.69800002"
           d="m 317.47,324.9 c 0,1.08 0.88,1.96 1.95,1.96 1.08,0 1.96,-0.88 1.96,-1.96 0,-1.07 -0.88,-1.95 -1.96,-1.95 -1.07,0 -1.95,0.88 -1.95,1.95" /><path
           id="path118"
           style="fill:#000000;fill-opacity:0.69800002;fill-rule:nonzero;stroke:#000000;stroke-width:0.70999998;stroke-linecap:round;stroke-linejoin:round;stroke-miterlimit:10;stroke-dasharray:none;stroke-opacity:0.69800002"
           d="m 314.39,319.14 c 0,1.08 0.87,1.96 1.95,1.96 1.07,0 1.95,-0.88 1.95,-1.96 0,-1.07 -0.88,-1.95 -1.95,-1.95 -1.08,0 -1.95,0.88 -1.95,1.95" /><path
           id="path120"
           style="fill:#000000;fill-opacity:0.69800002;fill-rule:nonzero;stroke:#000000;stroke-width:0.70999998;stroke-linecap:round;stroke-linejoin:round;stroke-miterlimit:10;stroke-dasharray:none;stroke-opacity:0.69800002"
           d="m 311.2,305.38 c 0,1.07 0.88,1.95 1.96,1.95 1.07,0 1.95,-0.88 1.95,-1.95 0,-1.08 -0.88,-1.96 -1.95,-1.96 -1.08,0 -1.96,0.88 -1.96,1.96" /><path
           id="path122"
           style="fill:#000000;fill-opacity:0.69800002;fill-rule:nonzero;stroke:#000000;stroke-width:0.70999998;stroke-linecap:round;stroke-linejoin:round;stroke-miterlimit:10;stroke-dasharray:none;stroke-opacity:0.69800002"
           d="m 166.6,170.3 c 0,1.08 0.88,1.96 1.96,1.96 1.07,0 1.95,-0.88 1.95,-1.96 0,-1.07 -0.88,-1.95 -1.95,-1.95 -1.08,0 -1.96,0.88 -1.96,1.95" /><path
           id="path124"
           style="fill:#000000;fill-opacity:0.69800002;fill-rule:nonzero;stroke:#000000;stroke-width:0.70999998;stroke-linecap:round;stroke-linejoin:round;stroke-miterlimit:10;stroke-dasharray:none;stroke-opacity:0.69800002"
           d="m 244.47,247.15 c 0,1.08 0.88,1.96 1.95,1.96 1.08,0 1.96,-0.88 1.96,-1.96 0,-1.07 -0.88,-1.95 -1.96,-1.95 -1.07,0 -1.95,0.88 -1.95,1.95" /><path
           id="path126"
           style="fill:#000000;fill-opacity:0.69800002;fill-rule:nonzero;stroke:#000000;stroke-width:0.70999998;stroke-linecap:round;stroke-linejoin:round;stroke-miterlimit:10;stroke-dasharray:none;stroke-opacity:0.69800002"
           d="m 306.62,309.55 c 0,1.07 0.88,1.95 1.95,1.95 1.08,0 1.96,-0.88 1.96,-1.95 0,-1.08 -0.88,-1.96 -1.96,-1.96 -1.07,0 -1.95,0.88 -1.95,1.96" /><path
           id="path128"
           style="fill:#000000;fill-opacity:0.69800002;fill-rule:nonzero;stroke:#000000;stroke-width:0.70999998;stroke-linecap:round;stroke-linejoin:round;stroke-miterlimit:10;stroke-dasharray:none;stroke-opacity:0.69800002"
           d="m 254.64,265.63 c 0,1.07 0.88,1.95 1.95,1.95 1.08,0 1.96,-0.88 1.96,-1.95 0,-1.08 -0.88,-1.96 -1.96,-1.96 -1.07,0 -1.95,0.88 -1.95,1.96" /><path
           id="path130"
           style="fill:#000000;fill-opacity:0.69800002;fill-rule:nonzero;stroke:#000000;stroke-width:0.70999998;stroke-linecap:round;stroke-linejoin:round;stroke-miterlimit:10;stroke-dasharray:none;stroke-opacity:0.69800002"
           d="m 192.13,194.19 c 0,1.08 0.88,1.95 1.96,1.95 1.07,0 1.95,-0.87 1.95,-1.95 0,-1.08 -0.88,-1.95 -1.95,-1.95 -1.08,0 -1.96,0.87 -1.96,1.95" /><path
           id="path132"
           style="fill:#000000;fill-opacity:0.69800002;fill-rule:nonzero;stroke:#000000;stroke-width:0.70999998;stroke-linecap:round;stroke-linejoin:round;stroke-miterlimit:10;stroke-dasharray:none;stroke-opacity:0.69800002"
           d="m 315.43,317.29 c 0,1.07 0.88,1.95 1.96,1.95 1.07,0 1.95,-0.88 1.95,-1.95 0,-1.08 -0.88,-1.96 -1.95,-1.96 -1.08,0 -1.96,0.88 -1.96,1.96" /><path
           id="path134"
           style="fill:#000000;fill-opacity:0.69800002;fill-rule:nonzero;stroke:#000000;stroke-width:0.70999998;stroke-linecap:round;stroke-linejoin:round;stroke-miterlimit:10;stroke-dasharray:none;stroke-opacity:0.69800002"
           d="m 285.4,295.52 c 0,1.07 0.88,1.95 1.95,1.95 1.08,0 1.96,-0.88 1.96,-1.95 0,-1.08 -0.88,-1.96 -1.96,-1.96 -1.07,0 -1.95,0.88 -1.95,1.96" /><path
           id="path136"
           style="fill:#000000;fill-opacity:0.69800002;fill-rule:nonzero;stroke:#000000;stroke-width:0.70999998;stroke-linecap:round;stroke-linejoin:round;stroke-miterlimit:10;stroke-dasharray:none;stroke-opacity:0.69800002"
           d="m 65.18,60.04 c 0,1.07 0.88,1.95 1.95,1.95 1.08,0 1.96,-0.88 1.96,-1.95 0,-1.08 -0.88,-1.96 -1.96,-1.96 -1.07,0 -1.95,0.88 -1.95,1.96" /><path
           id="path138"
           style="fill:#000000;fill-opacity:0.69800002;fill-rule:nonzero;stroke:#000000;stroke-width:0.70999998;stroke-linecap:round;stroke-linejoin:round;stroke-miterlimit:10;stroke-dasharray:none;stroke-opacity:0.69800002"
           d="m 222.92,213.62 c 0,1.08 0.88,1.96 1.95,1.96 1.08,0 1.96,-0.88 1.96,-1.96 0,-1.07 -0.88,-1.95 -1.96,-1.95 -1.07,0 -1.95,0.88 -1.95,1.95" /><path
           id="path140"
           style="fill:#000000;fill-opacity:0.69800002;fill-rule:nonzero;stroke:#000000;stroke-width:0.70999998;stroke-linecap:round;stroke-linejoin:round;stroke-miterlimit:10;stroke-dasharray:none;stroke-opacity:0.69800002"
           d="m 284.12,270.46 c 0,1.07 0.88,1.95 1.96,1.95 1.07,0 1.95,-0.88 1.95,-1.95 0,-1.08 -0.88,-1.96 -1.95,-1.96 -1.08,0 -1.96,0.88 -1.96,1.96" /><path
           id="path142"
           style="fill:#000000;fill-opacity:0.69800002;fill-rule:nonzero;stroke:#000000;stroke-width:0.70999998;stroke-linecap:round;stroke-linejoin:round;stroke-miterlimit:10;stroke-dasharray:none;stroke-opacity:0.69800002"
           d="m 401.53,389.02 c 0,1.07 0.87,1.95 1.95,1.95 1.08,0 1.95,-0.88 1.95,-1.95 0,-1.08 -0.87,-1.96 -1.95,-1.96 -1.08,0 -1.95,0.88 -1.95,1.96" /><path
           id="path144"
           style="fill:none;stroke:#333333;stroke-width:1.07000005;stroke-linecap:round;stroke-linejoin:round;stroke-miterlimit:10;stroke-dasharray:none;stroke-opacity:1"
           d="M 50.32,37.46 H 420.3 V 426.52 H 50.32 Z" /></g></g><g
       id="g146" /><g
       id="g148" /><g
       id="g150" /><g
       id="g152" /><g
       id="g154" /><g
       id="g156" /><g
       id="g158" /><g
       id="g160" /><g
       id="g162" /><g
       id="g164" /><g
       id="g166" /><g
       id="g168" /><g
       id="g170"><text
         id="text174"
         style="font-variant:normal;font-weight:normal;font-size:9px;font-family:Helvetica;-inkscape-font-specification:Helvetica;writing-mode:lr-tb;fill:#4d4d4d;fill-opacity:1;fill-rule:nonzero;stroke:none"
         transform="matrix(1,0,0,-1,35.38,47.34)"><tspan
           id="tspan172"
           y="0"
           x="0 5.0040002">10</tspan></text>
<text
         id="text178"
         style="font-variant:normal;font-weight:normal;font-size:9px;font-family:Helvetica;-inkscape-font-specification:Helvetica;writing-mode:lr-tb;fill:#4d4d4d;fill-opacity:1;fill-rule:nonzero;stroke:none"
         transform="matrix(1,0,0,-1,35.38,146.53)"><tspan
           id="tspan176"
           y="0"
           x="0 5.0040002">20</tspan></text>
<text
         id="text182"
         style="font-variant:normal;font-weight:normal;font-size:9px;font-family:Helvetica;-inkscape-font-specification:Helvetica;writing-mode:lr-tb;fill:#4d4d4d;fill-opacity:1;fill-rule:nonzero;stroke:none"
         transform="matrix(1,0,0,-1,35.38,204.56)"><tspan
           id="tspan180"
           y="0"
           x="0 5.0040002">30</tspan></text>
<text
         id="text186"
         style="font-variant:normal;font-weight:normal;font-size:9px;font-family:Helvetica;-inkscape-font-specification:Helvetica;writing-mode:lr-tb;fill:#4d4d4d;fill-opacity:1;fill-rule:nonzero;stroke:none"
         transform="matrix(1,0,0,-1,35.38,245.73)"><tspan
           id="tspan184"
           y="0"
           x="0 5.0040002">40</tspan></text>
<text
         id="text190"
         style="font-variant:normal;font-weight:normal;font-size:9px;font-family:Helvetica;-inkscape-font-specification:Helvetica;writing-mode:lr-tb;fill:#4d4d4d;fill-opacity:1;fill-rule:nonzero;stroke:none"
         transform="matrix(1,0,0,-1,35.38,277.66)"><tspan
           id="tspan188"
           y="0"
           x="0 5.0040002">50</tspan></text>
<text
         id="text194"
         style="font-variant:normal;font-weight:normal;font-size:9px;font-family:Helvetica;-inkscape-font-specification:Helvetica;writing-mode:lr-tb;fill:#4d4d4d;fill-opacity:1;fill-rule:nonzero;stroke:none"
         transform="matrix(1,0,0,-1,35.38,303.76)"><tspan
           id="tspan192"
           y="0"
           x="0 5.0040002">60</tspan></text>
<text
         id="text198"
         style="font-variant:normal;font-weight:normal;font-size:9px;font-family:Helvetica;-inkscape-font-specification:Helvetica;writing-mode:lr-tb;fill:#4d4d4d;fill-opacity:1;fill-rule:nonzero;stroke:none"
         transform="matrix(1,0,0,-1,35.38,325.82)"><tspan
           id="tspan196"
           y="0"
           x="0 5.0040002">70</tspan></text>
<text
         id="text202"
         style="font-variant:normal;font-weight:normal;font-size:9px;font-family:Helvetica;-inkscape-font-specification:Helvetica;writing-mode:lr-tb;fill:#4d4d4d;fill-opacity:1;fill-rule:nonzero;stroke:none"
         transform="matrix(1,0,0,-1,35.38,344.93)"><tspan
           id="tspan200"
           y="0"
           x="0 5.0040002">80</tspan></text>
<text
         id="text206"
         style="font-variant:normal;font-weight:normal;font-size:9px;font-family:Helvetica;-inkscape-font-specification:Helvetica;writing-mode:lr-tb;fill:#4d4d4d;fill-opacity:1;fill-rule:nonzero;stroke:none"
         transform="matrix(1,0,0,-1,35.38,361.78)"><tspan
           id="tspan204"
           y="0"
           x="0 5.0040002">90</tspan></text>
<text
         id="text210"
         style="font-variant:normal;font-weight:normal;font-size:9px;font-family:Helvetica;-inkscape-font-specification:Helvetica;writing-mode:lr-tb;fill:#4d4d4d;fill-opacity:1;fill-rule:nonzero;stroke:none"
         transform="matrix(1,0,0,-1,30.37,376.86)"><tspan
           id="tspan208"
           y="0"
           x="0 5.0040002 10.008">100</tspan></text>
<text
         id="text214"
         style="font-variant:normal;font-weight:normal;font-size:9px;font-family:Helvetica;-inkscape-font-specification:Helvetica;writing-mode:lr-tb;fill:#4d4d4d;fill-opacity:1;fill-rule:nonzero;stroke:none"
         transform="matrix(1,0,0,-1,30.37,390.5)"><tspan
           id="tspan212"
           y="0"
           x="0 5.0040002 10.008">110</tspan></text>
</g><g
       id="g216" /><g
       id="g218"><path
         id="path220"
         style="fill:none;stroke:#333333;stroke-width:1.07000005;stroke-linecap:butt;stroke-linejoin:round;stroke-miterlimit:10;stroke-dasharray:none;stroke-opacity:1"
         d="m 47.58,50.57 h 2.74" /><path
         id="path222"
         style="fill:none;stroke:#333333;stroke-width:1.07000005;stroke-linecap:butt;stroke-linejoin:round;stroke-miterlimit:10;stroke-dasharray:none;stroke-opacity:1"
         d="m 47.58,149.77 h 2.74" /><path
         id="path224"
         style="fill:none;stroke:#333333;stroke-width:1.07000005;stroke-linecap:butt;stroke-linejoin:round;stroke-miterlimit:10;stroke-dasharray:none;stroke-opacity:1"
         d="m 47.58,207.79 h 2.74" /><path
         id="path226"
         style="fill:none;stroke:#333333;stroke-width:1.07000005;stroke-linecap:butt;stroke-linejoin:round;stroke-miterlimit:10;stroke-dasharray:none;stroke-opacity:1"
         d="m 47.58,248.96 h 2.74" /><path
         id="path228"
         style="fill:none;stroke:#333333;stroke-width:1.07000005;stroke-linecap:butt;stroke-linejoin:round;stroke-miterlimit:10;stroke-dasharray:none;stroke-opacity:1"
         d="m 47.58,280.9 h 2.74" /><path
         id="path230"
         style="fill:none;stroke:#333333;stroke-width:1.07000005;stroke-linecap:butt;stroke-linejoin:round;stroke-miterlimit:10;stroke-dasharray:none;stroke-opacity:1"
         d="m 47.58,306.99 h 2.74" /><path
         id="path232"
         style="fill:none;stroke:#333333;stroke-width:1.07000005;stroke-linecap:butt;stroke-linejoin:round;stroke-miterlimit:10;stroke-dasharray:none;stroke-opacity:1"
         d="m 47.58,329.05 h 2.74" /><path
         id="path234"
         style="fill:none;stroke:#333333;stroke-width:1.07000005;stroke-linecap:butt;stroke-linejoin:round;stroke-miterlimit:10;stroke-dasharray:none;stroke-opacity:1"
         d="m 47.58,348.16 h 2.74" /><path
         id="path236"
         style="fill:none;stroke:#333333;stroke-width:1.07000005;stroke-linecap:butt;stroke-linejoin:round;stroke-miterlimit:10;stroke-dasharray:none;stroke-opacity:1"
         d="m 47.58,365.01 h 2.74" /><path
         id="path238"
         style="fill:none;stroke:#333333;stroke-width:1.07000005;stroke-linecap:butt;stroke-linejoin:round;stroke-miterlimit:10;stroke-dasharray:none;stroke-opacity:1"
         d="m 47.58,380.09 h 2.74" /><path
         id="path240"
         style="fill:none;stroke:#333333;stroke-width:1.07000005;stroke-linecap:butt;stroke-linejoin:round;stroke-miterlimit:10;stroke-dasharray:none;stroke-opacity:1"
         d="m 47.58,393.73 h 2.74" /></g><g
       id="g242" /><g
       id="g244" /><g
       id="g246" /><g
       id="g248" /><g
       id="g250" /><g
       id="g252" /><g
       id="g254" /><g
       id="g256" /><g
       id="g258" /><g
       id="g260"><path
         id="path262"
         style="fill:none;stroke:#333333;stroke-width:1.07000005;stroke-linecap:butt;stroke-linejoin:round;stroke-miterlimit:10;stroke-dasharray:none;stroke-opacity:1"
         d="m 104.09,34.72 v 2.74" /><path
         id="path264"
         style="fill:none;stroke:#333333;stroke-width:1.07000005;stroke-linecap:butt;stroke-linejoin:round;stroke-miterlimit:10;stroke-dasharray:none;stroke-opacity:1"
         d="m 203.29,34.72 v 2.74" /><path
         id="path266"
         style="fill:none;stroke:#333333;stroke-width:1.07000005;stroke-linecap:butt;stroke-linejoin:round;stroke-miterlimit:10;stroke-dasharray:none;stroke-opacity:1"
         d="m 261.31,34.72 v 2.74" /><path
         id="path268"
         style="fill:none;stroke:#333333;stroke-width:1.07000005;stroke-linecap:butt;stroke-linejoin:round;stroke-miterlimit:10;stroke-dasharray:none;stroke-opacity:1"
         d="m 302.48,34.72 v 2.74" /><path
         id="path270"
         style="fill:none;stroke:#333333;stroke-width:1.07000005;stroke-linecap:butt;stroke-linejoin:round;stroke-miterlimit:10;stroke-dasharray:none;stroke-opacity:1"
         d="m 334.42,34.72 v 2.74" /><path
         id="path272"
         style="fill:none;stroke:#333333;stroke-width:1.07000005;stroke-linecap:butt;stroke-linejoin:round;stroke-miterlimit:10;stroke-dasharray:none;stroke-opacity:1"
         d="m 360.51,34.72 v 2.74" /><path
         id="path274"
         style="fill:none;stroke:#333333;stroke-width:1.07000005;stroke-linecap:butt;stroke-linejoin:round;stroke-miterlimit:10;stroke-dasharray:none;stroke-opacity:1"
         d="m 382.57,34.72 v 2.74" /><path
         id="path276"
         style="fill:none;stroke:#333333;stroke-width:1.07000005;stroke-linecap:butt;stroke-linejoin:round;stroke-miterlimit:10;stroke-dasharray:none;stroke-opacity:1"
         d="m 401.68,34.72 v 2.74" /></g><g
       id="g278" /><g
       id="g280"><text
         id="text284"
         style="font-variant:normal;font-weight:normal;font-size:9px;font-family:Helvetica;-inkscape-font-specification:Helvetica;writing-mode:lr-tb;fill:#4d4d4d;fill-opacity:1;fill-rule:nonzero;stroke:none"
         transform="matrix(1,0,0,-1,99.09,26.06)"><tspan
           id="tspan282"
           y="0"
           x="0 5.0040002">50</tspan></text>
<text
         id="text288"
         style="font-variant:normal;font-weight:normal;font-size:9px;font-family:Helvetica;-inkscape-font-specification:Helvetica;writing-mode:lr-tb;fill:#4d4d4d;fill-opacity:1;fill-rule:nonzero;stroke:none"
         transform="matrix(1,0,0,-1,195.78,26.06)"><tspan
           id="tspan286"
           y="0"
           x="0 5.0040002 10.008">100</tspan></text>
<text
         id="text292"
         style="font-variant:normal;font-weight:normal;font-size:9px;font-family:Helvetica;-inkscape-font-specification:Helvetica;writing-mode:lr-tb;fill:#4d4d4d;fill-opacity:1;fill-rule:nonzero;stroke:none"
         transform="matrix(1,0,0,-1,253.81,26.06)"><tspan
           id="tspan290"
           y="0"
           x="0 5.0040002 10.008">150</tspan></text>
<text
         id="text296"
         style="font-variant:normal;font-weight:normal;font-size:9px;font-family:Helvetica;-inkscape-font-specification:Helvetica;writing-mode:lr-tb;fill:#4d4d4d;fill-opacity:1;fill-rule:nonzero;stroke:none"
         transform="matrix(1,0,0,-1,294.98,26.06)"><tspan
           id="tspan294"
           y="0"
           x="0 5.0040002 10.008">200</tspan></text>
<text
         id="text300"
         style="font-variant:normal;font-weight:normal;font-size:9px;font-family:Helvetica;-inkscape-font-specification:Helvetica;writing-mode:lr-tb;fill:#4d4d4d;fill-opacity:1;fill-rule:nonzero;stroke:none"
         transform="matrix(1,0,0,-1,326.91,26.06)"><tspan
           id="tspan298"
           y="0"
           x="0 5.0040002 10.008">250</tspan></text>
<text
         id="text304"
         style="font-variant:normal;font-weight:normal;font-size:9px;font-family:Helvetica;-inkscape-font-specification:Helvetica;writing-mode:lr-tb;fill:#4d4d4d;fill-opacity:1;fill-rule:nonzero;stroke:none"
         transform="matrix(1,0,0,-1,353,26.06)"><tspan
           id="tspan302"
           y="0"
           x="0 5.0040002 10.008">300</tspan></text>
<text
         id="text308"
         style="font-variant:normal;font-weight:normal;font-size:9px;font-family:Helvetica;-inkscape-font-specification:Helvetica;writing-mode:lr-tb;fill:#4d4d4d;fill-opacity:1;fill-rule:nonzero;stroke:none"
         transform="matrix(1,0,0,-1,375.06,26.06)"><tspan
           id="tspan306"
           y="0"
           x="0 5.0040002 10.008">350</tspan></text>
<text
         id="text312"
         style="font-variant:normal;font-weight:normal;font-size:9px;font-family:Helvetica;-inkscape-font-specification:Helvetica;writing-mode:lr-tb;fill:#4d4d4d;fill-opacity:1;fill-rule:nonzero;stroke:none"
         transform="matrix(1,0,0,-1,394.17,26.06)"><tspan
           id="tspan310"
           y="0"
           x="0 5.0040002 10.008">400</tspan></text>
</g><g
       id="g314" /><g
       id="g316" /><g
       id="g318" /><g
       id="g320" /><g
       id="g322" /><g
       id="g324" /><g
       id="g326" /><g
       id="g328" /><g
       id="g330"><text
         id="text334"
         style="font-variant:normal;font-weight:normal;font-size:11px;font-family:Helvetica;-inkscape-font-specification:Helvetica;writing-mode:lr-tb;fill:#000000;fill-opacity:1;fill-rule:nonzero;stroke:none"
         transform="matrix(1,0,0,-1,165.61,10.25)"><tspan
           id="tspan332"
           y="0"
           x="0 6.1160002 9.1739998 12.837 18.952999 25.069 31.184999 36.685001 39.743 45.859001 48.917 51.974998 58.091 61.754002 64.811996 67.870003 73.986 79.486 85.601997 91.718002 97.834 106.832 112.332 115.39"># reads after taxonomy (</tspan></text>
<text
         id="text338"
         style="font-variant:normal;font-weight:normal;font-size:11px;font-family:Helvetica;-inkscape-font-specification:Helvetica;writing-mode:lr-tb;fill:#000000;fill-opacity:1;fill-rule:nonzero;stroke:none"
         transform="matrix(1,0,0,-1,284.66,10.25)"><tspan
           id="tspan336"
           y="0"
           x="0 6.1160002">10</tspan></text>
<text
         id="text342"
         style="font-variant:normal;font-weight:normal;font-size:8px;font-family:Helvetica;-inkscape-font-specification:Helvetica;writing-mode:lr-tb;fill:#000000;fill-opacity:1;fill-rule:nonzero;stroke:none"
         transform="matrix(1,0,0,-1,296.89,15.72)"><tspan
           id="tspan340"
           y="0"
           x="0">3</tspan></text>
<text
         id="text346"
         style="font-variant:normal;font-weight:normal;font-size:11px;font-family:Helvetica;-inkscape-font-specification:Helvetica;writing-mode:lr-tb;fill:#000000;fill-opacity:1;fill-rule:nonzero;stroke:none"
         transform="matrix(1,0,0,-1,301.34,10.25)"><tspan
           id="tspan344"
           y="0"
           x="0">)</tspan></text>
</g><g
       id="g348" /><g
       id="g350"><text
         id="text354"
         style="font-variant:normal;font-weight:normal;font-size:11px;font-family:Helvetica;-inkscape-font-specification:Helvetica;writing-mode:lr-tb;fill:#000000;fill-opacity:1;fill-rule:nonzero;stroke:none"
         transform="matrix(0,1,1,0,22.79,164.79)"><tspan
           id="tspan352"
           y="0"
           x="0 6.1160002 9.1739998 15.29 21.406 27.521999 33.638 42.800999 48.917 51.974998 58.091 64.207001 70.322998 72.764999 77.989998 84.106003 86.547997 92.664001 98.779999 101.838 107.338 110.396"># genome equivalents (</tspan></text>
<text
         id="text358"
         style="font-variant:normal;font-weight:normal;font-size:11px;font-family:Helvetica;-inkscape-font-specification:Helvetica;writing-mode:lr-tb;fill:#000000;fill-opacity:1;fill-rule:nonzero;stroke:none"
         transform="matrix(0,1,1,0,22.79,278.85)"><tspan
           id="tspan356"
           y="0"
           x="0 6.1160002">10</tspan></text>
<text
         id="text362"
         style="font-variant:normal;font-weight:normal;font-size:8px;font-family:Helvetica;-inkscape-font-specification:Helvetica;writing-mode:lr-tb;fill:#000000;fill-opacity:1;fill-rule:nonzero;stroke:none"
         transform="matrix(0,1,1,0,17.33,291.08)"><tspan
           id="tspan360"
           y="0"
           x="0">3</tspan></text>
<text
         id="text366"
         style="font-variant:normal;font-weight:normal;font-size:11px;font-family:Helvetica;-inkscape-font-specification:Helvetica;writing-mode:lr-tb;fill:#000000;fill-opacity:1;fill-rule:nonzero;stroke:none"
         transform="matrix(0,1,1,0,22.79,295.53)"><tspan
           id="tspan364"
           y="0"
           x="0">)</tspan></text>
</g><g
       id="g368" /><g
       id="g370" /><g
       id="g372" /><g
       id="g374" /><g
       id="g376" /><g
       id="g378" /><g
       id="g380" /><g
       id="g382" /><g
       id="g384" /><g
       id="g386" /><g
       id="g388" /><g
       id="g390" /><g
       id="g392" /><g
       id="g394" /><g
       id="g396" /><g
       id="g398" /><g
       id="g400" /><g
       id="g402" /><g
       id="g404" /><g
       id="g406" /></g></svg>